<?xml version="1.0" encoding="UTF-8" standalone="no"?><!DOCTYPE svg PUBLIC "-//W3C//DTD SVG 1.1//EN" "http://www.w3.org/Graphics/SVG/1.1/DTD/svg11.dtd"><svg width="100%" height="100%" viewBox="0 0 50 250" version="1.1" xmlns="http://www.w3.org/2000/svg" xmlns:xlink="http://www.w3.org/1999/xlink" xml:space="preserve" xmlns:serif="http://www.serif.com/" style="fill-rule:evenodd;clip-rule:evenodd;stroke-linecap:round;stroke-linejoin:round;stroke-miterlimit:1.5;"><g transform="matrix(0.431818,0,0,0.431818,0.818182,0.409091)"><text x="17.9px" y="26.736px" style="font-family:'Anton-Regular', 'Anton';font-size:24px;fill:#202020;">cyclone</text><text x="13.124px" y="50.736px" style="font-family:'Anton-Regular', 'Anton';font-size:24px;fill:#202020;">category</text></g><circle cx="25" cy="46.5" r="19" style="fill:#202020;"/><circle cx="25" cy="90" r="19" style="fill:#202020;"/><circle cx="25" cy="133.5" r="19" style="fill:#202020;"/><circle cx="25" cy="177" r="19" style="fill:#202020;"/><circle cx="25" cy="220.5" r="19" style="fill:#202020;"/><circle cx="25" cy="46.5" r="16" style="fill:none;stroke:#ffe208;stroke-width:1.5px;"/><circle cx="25" cy="90" r="16" style="fill:none;stroke:#ffa038;stroke-width:1.5px;"/><circle cx="25" cy="133.5" r="16" style="fill:none;stroke:#ff6838;stroke-width:1.5px;"/><circle cx="25" cy="177" r="16" style="fill:none;stroke:#ff385f;stroke-width:1.5px;"/><circle cx="25" cy="220.5" r="16" style="fill:none;stroke:#ff38a8;stroke-width:1.5px;"/><circle cx="25" cy="46.5" r="7" style="fill:#ffe208;"/><circle cx="25" cy="90" r="7" style="fill:#ffa038;"/><circle cx="25" cy="133.5" r="7" style="fill:#ff6838;"/><circle cx="25" cy="177" r="7" style="fill:#ff385f;"/><circle cx="25" cy="220.5" r="7" style="fill:#ff38a8;"/><text x="23.179px" y="50.643px" style="font-family:'Anton-Regular', 'Anton';font-size:9.714px;fill:#202020;">1</text><text x="22.679px" y="94.143px" style="font-family:'Anton-Regular', 'Anton';font-size:9.714px;fill:#202020;">2</text><text x="22.679px" y="137.643px" style="font-family:'Anton-Regular', 'Anton';font-size:9.714px;fill:#202020;">3</text><text x="22.679px" y="181.143px" style="font-family:'Anton-Regular', 'Anton';font-size:9.714px;fill:#202020;">4</text><text x="22.429px" y="224.643px" style="font-family:'Anton-Regular', 'Anton';font-size:9.714px;fill:#202020;">5</text></svg>