<?xml version="1.0" encoding="UTF-8" standalone="no"?><!DOCTYPE svg PUBLIC "-//W3C//DTD SVG 1.1//EN" "http://www.w3.org/Graphics/SVG/1.1/DTD/svg11.dtd"><svg width="100%" height="100%" viewBox="0 0 209 1042" version="1.1" xmlns="http://www.w3.org/2000/svg" xmlns:xlink="http://www.w3.org/1999/xlink" xml:space="preserve" xmlns:serif="http://www.serif.com/" style="fill-rule:evenodd;clip-rule:evenodd;stroke-linecap:round;stroke-linejoin:round;stroke-miterlimit:1.5;"><g transform="matrix(1.79924,0,0,1.79924,-11.1742,1.70455)"><text x="19.416px" y="23.18px" style="font-family:'Arial-BoldMT', 'Arial', sans-serif;font-weight:700;font-size:24px;fill:#202020;">cyclone</text><text x="14.084px" y="47.965px" style="font-family:'Arial-BoldMT', 'Arial', sans-serif;font-weight:700;font-size:24px;fill:#202020;">category</text></g><g><g><circle cx="104.167" cy="193.75" r="79.167" style="fill:#202020;"/><circle cx="104.167" cy="193.75" r="66.667" style="fill:none;stroke:#ffe208;stroke-width:6.25px;"/><circle cx="104.167" cy="193.75" r="29.167" style="fill:#ffe208;"/><text x="96.577px" y="211.013px" style="font-family:'Anton-Regular', 'Anton';font-size:40.476px;fill:#202020;">1</text></g><circle cx="104.167" cy="375" r="79.167" style="fill:#202020;"/><circle cx="104.167" cy="556.25" r="79.167" style="fill:#202020;"/><circle cx="104.167" cy="737.5" r="79.167" style="fill:#202020;"/><circle cx="104.167" cy="918.75" r="79.167" style="fill:#202020;"/><circle cx="104.167" cy="375" r="66.667" style="fill:none;stroke:#ffa038;stroke-width:6.25px;"/><circle cx="104.167" cy="556.25" r="66.667" style="fill:none;stroke:#ff6838;stroke-width:6.25px;"/><circle cx="104.167" cy="737.5" r="66.667" style="fill:none;stroke:#ff385f;stroke-width:6.25px;"/><circle cx="104.167" cy="918.75" r="66.667" style="fill:none;stroke:#ff38a8;stroke-width:6.25px;"/><circle cx="104.167" cy="375" r="29.167" style="fill:#ffa038;"/><circle cx="104.167" cy="556.25" r="29.167" style="fill:#ff6838;"/><circle cx="104.167" cy="737.5" r="29.167" style="fill:#ff385f;"/><circle cx="104.167" cy="918.75" r="29.167" style="fill:#ff38a8;"/><text x="94.494px" y="392.263px" style="font-family:'Anton-Regular', 'Anton';font-size:40.476px;fill:#202020;">2</text><text x="94.494px" y="573.513px" style="font-family:'Anton-Regular', 'Anton';font-size:40.476px;fill:#202020;">3</text><text x="94.494px" y="754.763px" style="font-family:'Anton-Regular', 'Anton';font-size:40.476px;fill:#202020;">4</text><text x="93.452px" y="936.013px" style="font-family:'Anton-Regular', 'Anton';font-size:40.476px;fill:#202020;">5</text></g></svg>