<?xml version="1.0" encoding="UTF-8" standalone="no"?><!DOCTYPE svg PUBLIC "-//W3C//DTD SVG 1.1//EN" "http://www.w3.org/Graphics/SVG/1.1/DTD/svg11.dtd"><svg width="100%" height="100%" viewBox="0 0 1000 100" version="1.1" xmlns="http://www.w3.org/2000/svg" xmlns:xlink="http://www.w3.org/1999/xlink" xml:space="preserve" xmlns:serif="http://www.serif.com/" style="fill-rule:evenodd;clip-rule:evenodd;stroke-linejoin:round;stroke-miterlimit:2;"><g><path d="M1000,50.582c0,-13.106 -5.206,-25.675 -14.474,-34.942c-9.267,-9.268 -21.836,-14.474 -34.942,-14.474l-901.168,0c-13.106,0 -25.675,5.206 -34.942,14.474c-9.268,9.267 -14.474,21.836 -14.474,34.942l0,0.002c-0,13.106 5.206,25.675 14.474,34.942c9.267,9.268 21.836,14.474 34.942,14.474l901.168,-0c13.106,0 25.675,-5.206 34.942,-14.474c9.268,-9.267 14.474,-21.836 14.474,-34.942l-0,-0.002Z" style="fill:#0f0f0f;"/><path d="M807.814,57.239c-0,0 7.326,8.864 7.244,13.003c-0.083,4.14 -3.51,7.433 -7.649,7.351c-4.139,-0.082 -7.433,-3.51 -7.351,-7.649c0.082,-4.139 7.756,-12.705 7.756,-12.705Z" style="fill:#44d3ff;"/><path d="M807.711,79.376c-0,0 3.609,4.367 3.569,6.406c-0.041,2.04 -1.729,3.662 -3.769,3.622c-2.039,-0.041 -3.661,-1.729 -3.621,-3.769c0.041,-2.039 3.821,-6.259 3.821,-6.259Z" style="fill:#44d3ff;"/><path d="M796.102,70.799c-0,-0 4.892,5.918 4.837,8.682c-0.055,2.764 -2.343,4.963 -5.107,4.908c-2.764,-0.055 -4.963,-2.343 -4.909,-5.107c0.055,-2.764 5.179,-8.483 5.179,-8.483Z" style="fill:#fff;"/><path d="M819.401,70.799c-0,-0 4.892,5.918 4.837,8.682c-0.055,2.764 -2.344,4.963 -5.108,4.908c-2.764,-0.055 -4.963,-2.343 -4.908,-5.107c0.055,-2.764 5.179,-8.483 5.179,-8.483Z" style="fill:#aeedff;"/><path d="M799.245,65.66l-0.262,0l-0.002,-0.001l-0.033,-0.001c-13.502,-0.171 -24.412,-11.186 -24.412,-24.73c-0,-13.65 11.082,-24.732 24.732,-24.732c10.863,0 20.1,7.02 23.417,16.765c0,0 3.623,0 3.623,0c4.335,0 8.492,1.722 11.558,4.787c3.065,3.065 4.787,7.223 4.787,11.558c-0,0.003 -0,0.006 -0,0.01c-0,4.335 -1.722,8.492 -4.787,11.557c-3.066,3.065 -7.223,4.787 -11.558,4.787l-10.372,0l-2.939,-5.511l13.312,-0c2.873,-0 5.628,-1.142 7.659,-3.173c2.032,-2.032 3.173,-4.787 3.173,-7.66l-0,-0.01c-0,-2.873 -1.141,-5.629 -3.173,-7.66c-2.031,-2.032 -4.786,-3.173 -7.66,-3.173l-5.687,-0c-1.271,-0 -2.377,-0.869 -2.678,-2.104c-2.048,-8.41 -9.638,-14.661 -18.675,-14.661c-10.608,0 -19.221,8.612 -19.221,19.22c0,10.525 8.478,19.086 18.971,19.219l0.042,0.002l3.123,-0l-2.938,5.511Z" style="fill:#fff;"/><path d="M924.718,57.239c0,0 7.327,8.864 7.245,13.003c-0.083,4.14 -3.51,7.433 -7.649,7.351c-4.139,-0.082 -7.433,-3.51 -7.351,-7.649c0.082,-4.139 7.755,-12.705 7.755,-12.705Z" style="fill:#44d3ff;"/><path d="M913.007,70.799c-0,-0 4.892,5.918 4.837,8.682c-0.055,2.764 -2.344,4.963 -5.107,4.908c-2.764,-0.055 -4.964,-2.343 -4.909,-5.107c0.055,-2.764 5.179,-8.483 5.179,-8.483Z" style="fill:#fff;"/><path d="M936.306,70.799c-0,-0 4.892,5.918 4.837,8.682c-0.055,2.764 -2.344,4.963 -5.108,4.908c-2.764,-0.055 -4.963,-2.343 -4.908,-5.107c0.055,-2.764 5.179,-8.483 5.179,-8.483Z" style="fill:#aeedff;"/><path d="M916.149,65.66l-0.261,0l-0.002,-0.001l-0.033,-0.001c-13.502,-0.171 -24.412,-11.186 -24.412,-24.73c-0,-13.65 11.082,-24.732 24.732,-24.732c10.863,0 20.099,7.02 23.417,16.765c0,0 3.623,0 3.623,0c4.335,0 8.492,1.722 11.558,4.787c3.065,3.065 4.787,7.223 4.787,11.558c-0,0.003 -0,0.006 -0,0.01c-0,4.335 -1.722,8.492 -4.787,11.557c-3.066,3.065 -7.223,4.787 -11.558,4.787l-10.372,0l-2.939,-5.511l13.312,-0c2.872,-0 5.628,-1.142 7.659,-3.173c2.032,-2.032 3.173,-4.787 3.173,-7.66l-0,-0.01c-0,-2.873 -1.141,-5.629 -3.173,-7.66c-2.031,-2.032 -4.787,-3.173 -7.66,-3.173l-5.687,-0c-1.271,-0 -2.377,-0.869 -2.678,-2.104c-2.048,-8.41 -9.638,-14.661 -18.675,-14.661c-10.608,0 -19.221,8.612 -19.221,19.22c0,10.525 8.478,19.086 18.97,19.219l0.043,0.002l3.123,-0l-2.939,5.511Z" style="fill:#fff;"/><path d="M699.81,57.239c-0,0 7.326,8.864 7.244,13.003c-0.082,4.14 -3.509,7.433 -7.649,7.351c-4.139,-0.082 -7.433,-3.51 -7.35,-7.649c0.082,-4.139 7.755,-12.705 7.755,-12.705Z" style="fill:#44d3ff;"/><path d="M688.098,70.799c0,-0 4.892,5.918 4.838,8.682c-0.055,2.764 -2.344,4.963 -5.108,4.908c-2.764,-0.055 -4.963,-2.343 -4.908,-5.107c0.055,-2.764 5.178,-8.483 5.178,-8.483Z" style="fill:#fff;"/><path d="M711.397,70.799c0,-0 4.892,5.918 4.837,8.682c-0.055,2.764 -2.343,4.963 -5.107,4.908c-2.764,-0.055 -4.963,-2.343 -4.908,-5.107c0.055,-2.764 5.178,-8.483 5.178,-8.483Z" style="fill:#aeedff;"/><path d="M691.241,65.66l-0.262,0l-0.001,-0.001l-0.034,-0.001c-13.501,-0.171 -24.412,-11.186 -24.412,-24.73c0,-13.65 11.082,-24.732 24.732,-24.732c10.864,0 20.1,7.02 23.418,16.765c-0,0 3.623,0 3.623,0c4.335,0 8.492,1.722 11.557,4.787c3.065,3.065 4.787,7.223 4.787,11.558c0,0.003 0,0.006 0,0.01c0,4.335 -1.722,8.492 -4.787,11.557c-3.065,3.065 -7.222,4.787 -11.557,4.787l-10.373,0l-2.938,-5.511l13.311,-0c2.873,-0 5.628,-1.142 7.66,-3.173c2.031,-2.032 3.172,-4.787 3.172,-7.66l0,-0.01c0,-2.873 -1.141,-5.629 -3.172,-7.66c-2.032,-2.032 -4.787,-3.173 -7.66,-3.173l-5.688,-0c-1.27,-0 -2.376,-0.869 -2.677,-2.104c-2.048,-8.41 -9.638,-14.661 -18.676,-14.661c-10.608,0 -19.22,8.612 -19.22,19.22c-0,10.525 8.478,19.086 18.97,19.219l0.042,0.002l3.123,-0l-2.938,5.511Z" style="fill:#fff;"/><path d="M597.886,57.239c0,0 7.327,8.864 7.244,13.003c-0.082,4.14 -3.509,7.433 -7.648,7.351c-4.14,-0.082 -7.433,-3.51 -7.351,-7.649c0.082,-4.139 7.755,-12.705 7.755,-12.705Z" style="fill:#44d3ff;"/><path d="M589.317,65.66l-0.262,0l-0.001,-0.001l-0.034,-0.001c-13.501,-0.171 -24.412,-11.186 -24.412,-24.73c0,-13.65 11.082,-24.732 24.732,-24.732c10.864,0 20.1,7.02 23.418,16.765c-0,0 3.623,0 3.623,0c4.335,0 8.492,1.722 11.557,4.787c3.065,3.065 4.787,7.223 4.787,11.558c0,0.003 0,0.006 0,0.01c0,4.335 -1.722,8.492 -4.787,11.557c-3.065,3.065 -7.222,4.787 -11.557,4.787l-10.372,0l-2.939,-5.511l13.311,-0c2.873,-0 5.628,-1.142 7.66,-3.173c2.031,-2.032 3.173,-4.787 3.173,-7.66l-0,-0.01c-0,-2.873 -1.142,-5.629 -3.173,-7.66c-2.032,-2.032 -4.787,-3.173 -7.66,-3.173l-5.687,-0c-1.271,-0 -2.377,-0.869 -2.678,-2.104c-2.048,-8.41 -9.638,-14.661 -18.676,-14.661c-10.608,0 -19.22,8.612 -19.22,19.22c0,10.525 8.478,19.086 18.97,19.219l0.042,0.002l3.124,-0l-2.939,5.511Z" style="fill:#fff;"/><path d="M206.595,71.339l0.001,0.002l27.875,-0c4.422,-0 8.663,-1.757 11.79,-4.884c3.127,-3.127 4.883,-7.367 4.883,-11.789c0,-0.004 0,-0.007 0,-0.011c0,-4.422 -1.756,-8.663 -4.883,-11.79c-3.127,-3.126 -7.368,-4.883 -11.79,-4.883c0,-0 -3.696,-0 -3.696,-0c-3.384,-9.941 -12.806,-17.102 -23.888,-17.102c-13.925,0 -25.229,11.305 -25.229,25.229c-0,13.817 11.129,25.053 24.903,25.228l0.034,-0Zm0.08,-5.621l-0.043,-0.001c-10.703,-0.136 -19.352,-8.869 -19.352,-19.606c0,-10.821 8.786,-19.606 19.607,-19.606c9.219,-0 16.962,6.376 19.051,14.955c0.307,1.26 1.435,2.146 2.732,2.146l5.801,0c2.931,0.001 5.742,1.165 7.814,3.237c2.073,2.072 3.237,4.883 3.237,7.814l-0,0.011c-0,2.93 -1.164,5.741 -3.237,7.814c-2.072,2.072 -4.883,3.236 -7.813,3.236l-27.797,0Z" style="fill:#fff;"/><path d="M230.773,46.11c-6.509,-0.082 -11.768,-5.392 -11.768,-11.921c-0,-6.581 5.342,-11.923 11.923,-11.923c5.606,-0 10.314,3.878 11.585,9.095l3.085,0c1.955,0 3.831,0.777 5.213,2.16c1.383,1.382 2.159,3.257 2.159,5.213c0,0.001 0,0.003 0,0.005c0,1.955 -0.776,3.831 -2.159,5.213c-1.382,1.383 -3.258,2.159 -5.213,2.159l-14.825,0l0,-0.001Z" style="fill:#fff;"/><path d="M118.903,71.339l0.002,0.002l27.671,-0c4.39,-0 8.6,-1.744 11.704,-4.848c3.104,-3.104 4.847,-7.314 4.847,-11.704c0,-0.003 0,-0.007 0,-0.01c0,-4.39 -1.743,-8.6 -4.847,-11.704c-3.104,-3.104 -7.314,-4.847 -11.704,-4.847c0,-0 -3.669,-0 -3.669,-0c-3.36,-9.868 -12.713,-16.977 -23.714,-16.977c-13.822,-0 -25.045,11.222 -25.045,25.045c0,13.715 11.049,24.87 24.721,25.043l0.034,-0Zm0.08,-5.58l-0.043,-0.001c-10.625,-0.135 -19.21,-8.804 -19.21,-19.462c-0,-10.742 8.721,-19.464 19.463,-19.464c9.152,0 16.838,6.33 18.912,14.847c0.305,1.25 1.425,2.13 2.712,2.13l5.759,0c2.91,0 5.7,1.156 7.757,3.213c2.057,2.057 3.213,4.848 3.213,7.757l-0,0.01c-0,2.91 -1.156,5.7 -3.213,7.757c-2.057,2.057 -4.847,3.213 -7.757,3.213l-27.593,0Z" style="fill:#fff;"/><circle cx="143.96" cy="36.569" r="13.446" style="fill:#ffc900;"/><circle cx="45.346" cy="50.583" r="21.729" style="fill:#ffc900;"/><path d="M909.63,43.09l14.832,-0l-13.033,12.077l7.629,-0l-25.573,22.427l10.23,-14.443l-5.008,-0l10.923,-20.061Z" style="fill:#ffb600;"/><path d="M529.028,13.571l-0,71.196c-0,1.521 0.95,2.756 2.12,2.756c1.171,0 2.121,-1.235 2.121,-2.756l-0,-71.196c-0,-1.521 -0.95,-2.756 -2.121,-2.756c-1.17,-0 -2.12,1.235 -2.12,2.756Z" style="fill:#fff;fill-opacity:0.12;"/><path d="M276.176,13.571l-0,71.196c-0,1.521 0.95,2.756 2.12,2.756c1.171,0 2.121,-1.235 2.121,-2.756l-0,-71.196c-0,-1.521 -0.95,-2.756 -2.121,-2.756c-1.17,-0 -2.12,1.235 -2.12,2.756Z" style="fill:#fff;fill-opacity:0.12;"/><g><g><circle cx="345.16" cy="51.735" r="25.86" style="fill:#ffc900;"/></g><g><path d="M310.036,46.197l35.123,-0c1.46,-0 2.644,-1.185 2.644,-2.645c0,-1.459 -1.184,-2.644 -2.644,-2.644l-35.123,-0c-1.46,-0 -2.645,1.185 -2.645,2.644c0,1.46 1.185,2.645 2.645,2.645Z" style="fill:#f8f8f8;"/></g><g><path d="M310.036,61.707l60.982,0c1.461,0 2.646,-1.185 2.646,-2.645c-0,-1.459 -1.185,-2.644 -2.646,-2.644l-60.982,-0c-1.461,-0 -2.646,1.185 -2.646,2.644c0,1.46 1.185,2.645 2.646,2.645Z" style="fill:#f8f8f8;"/></g><g><path d="M336.709,68.929l41.871,-0c1.459,-0 2.644,-1.186 2.644,-2.645c0,-1.46 -1.185,-2.645 -2.644,-2.645l-41.871,-0c-1.459,-0 -2.644,1.185 -2.644,2.645c0,1.459 1.185,2.645 2.644,2.645Z" style="fill:#f8f8f8;"/></g><g><path d="M310.036,76.37l35.123,-0c1.46,-0 2.644,-1.185 2.644,-2.645c0,-1.459 -1.184,-2.645 -2.644,-2.645l-35.123,0c-1.46,0 -2.645,1.186 -2.645,2.645c0,1.46 1.185,2.645 2.645,2.645Z" style="fill:#f8f8f8;"/></g><g><path d="M350.896,76.37l12.485,-0c1.459,-0 2.644,-1.185 2.644,-2.645c-0,-1.459 -1.185,-2.645 -2.644,-2.645l-12.485,0c-1.46,0 -2.645,1.186 -2.645,2.645c0,1.46 1.185,2.645 2.645,2.645Z" style="fill:#f8f8f8;"/></g><g><path d="M319.299,54.379l25.86,0c1.459,0 2.644,-1.185 2.644,-2.644c-0,-1.46 -1.185,-2.645 -2.644,-2.645l-25.86,-0c-1.459,-0 -2.644,1.185 -2.644,2.645c-0,1.459 1.185,2.644 2.644,2.644Z" style="fill:#f8f8f8;"/></g><g><path d="M353.077,54.379l9.288,0c1.46,0 2.644,-1.185 2.644,-2.644c0,-1.46 -1.184,-2.645 -2.644,-2.645l-9.288,-0c-1.46,-0 -2.644,1.185 -2.644,2.645c-0,1.459 1.184,2.644 2.644,2.644Z" style="fill:#f8f8f8;"/></g></g><g><g><circle cx="462.21" cy="51.323" r="26.05" style="fill:#ffc900;"/></g><g><path d="M426.827,45.744l35.381,-0c1.471,-0 2.664,-1.194 2.664,-2.664c0,-1.47 -1.193,-2.664 -2.664,-2.664l-35.381,-0c-1.471,-0 -2.664,1.194 -2.664,2.664c0,1.47 1.193,2.664 2.664,2.664Z" style="fill:#777;"/></g><g><path d="M426.827,61.368l61.431,0c1.471,0 2.665,-1.193 2.665,-2.664c-0,-1.47 -1.194,-2.664 -2.665,-2.664l-61.431,0c-1.471,0 -2.665,1.194 -2.665,2.664c-0,1.471 1.194,2.664 2.665,2.664Z" style="fill:#777;"/></g><g><path d="M453.697,68.643l42.178,-0c1.47,-0 2.664,-1.194 2.664,-2.664c-0,-1.471 -1.194,-2.665 -2.664,-2.665l-42.178,0c-1.47,0 -2.664,1.194 -2.664,2.665c-0,1.47 1.194,2.664 2.664,2.664Z" style="fill:#777;"/></g><g><path d="M426.827,76.139l35.381,-0c1.471,-0 2.664,-1.194 2.664,-2.664c0,-1.471 -1.193,-2.665 -2.664,-2.665l-35.381,0c-1.471,0 -2.664,1.194 -2.664,2.665c0,1.47 1.193,2.664 2.664,2.664Z" style="fill:#777;"/></g><g><path d="M467.988,76.139l12.576,-0c1.47,-0 2.664,-1.194 2.664,-2.664c-0,-1.471 -1.194,-2.665 -2.664,-2.665l-12.576,0c-1.471,0 -2.665,1.194 -2.665,2.665c0,1.47 1.194,2.664 2.665,2.664Z" style="fill:#777;"/></g><g><path d="M436.158,53.987l26.05,-0c1.47,-0 2.664,-1.194 2.664,-2.665c-0,-1.47 -1.194,-2.664 -2.664,-2.664l-26.05,0c-1.47,0 -2.663,1.194 -2.663,2.664c-0,1.471 1.193,2.665 2.663,2.665Z" style="fill:#777;"/></g><g><path d="M470.185,53.987l9.356,-0c1.47,-0 2.664,-1.194 2.664,-2.665c-0,-1.47 -1.194,-2.664 -2.664,-2.664l-9.356,0c-1.471,0 -2.664,1.194 -2.664,2.664c-0,1.471 1.193,2.665 2.664,2.665Z" style="fill:#777;"/></g></g></g></svg>