<?xml version="1.0" encoding="UTF-8" standalone="no"?><!DOCTYPE svg PUBLIC "-//W3C//DTD SVG 1.1//EN" "http://www.w3.org/Graphics/SVG/1.1/DTD/svg11.dtd"><svg width="100%" height="100%" viewBox="0 0 4000 400" version="1.1" xmlns="http://www.w3.org/2000/svg" xmlns:xlink="http://www.w3.org/1999/xlink" xml:space="preserve" xmlns:serif="http://www.serif.com/" style="fill-rule:evenodd;clip-rule:evenodd;stroke-linejoin:round;stroke-miterlimit:2;"><g><path d="M3949,201.165c0,-106.426 -86.275,-192.701 -192.701,-192.701l-3524.6,0c-51.107,0 -100.122,20.303 -136.26,56.441c-36.139,36.138 -56.441,85.153 -56.441,136.26l-0,0.002c-0,106.426 86.275,192.701 192.701,192.701l3524.6,0c51.107,0 100.122,-20.302 136.26,-56.441c36.139,-36.138 56.441,-85.152 56.441,-136.26l-0,-0.002Z" style="fill:#0f0f0f;"/><path d="M3206.02,227.122c0,-0 28.57,34.565 28.249,50.706c-0.321,16.141 -13.686,28.985 -29.827,28.664c-16.141,-0.321 -28.985,-13.686 -28.664,-29.827c0.321,-16.141 30.242,-49.543 30.242,-49.543Z" style="fill:#44d3ff;"/><path d="M3205.62,313.445c0,0 14.075,17.029 13.917,24.981c-0.158,7.952 -6.742,14.28 -14.694,14.122c-7.952,-0.158 -14.28,-6.743 -14.122,-14.695c0.158,-7.952 14.899,-24.408 14.899,-24.408Z" style="fill:#44d3ff;"/><path d="M3160.35,279.997c0,0 19.077,23.08 18.862,33.858c-0.214,10.777 -9.138,19.353 -19.916,19.139c-10.777,-0.214 -19.354,-9.138 -19.139,-19.916c0.214,-10.778 20.193,-33.081 20.193,-33.081Z" style="fill:#fff;"/><path d="M3251.2,279.997c0,0 19.077,23.08 18.863,33.858c-0.214,10.777 -9.139,19.353 -19.916,19.139c-10.778,-0.214 -19.354,-9.138 -19.14,-19.916c0.214,-10.778 20.193,-33.081 20.193,-33.081Z" style="fill:#aeedff;"/><path d="M3172.61,259.96l-1.022,0l-0.005,-0.007l-0.131,-0c-52.649,-0.667 -95.195,-43.621 -95.195,-96.435c0,-53.228 43.215,-96.443 96.443,-96.443c42.362,-0 78.38,27.375 91.317,65.374c-0,-0 14.128,-0 14.128,-0c16.904,-0 33.115,6.715 45.068,18.668c11.953,11.952 18.668,28.164 18.668,45.067c-0,0.014 -0,0.027 -0,0.041c-0,16.904 -6.715,33.115 -18.668,45.068c-11.953,11.952 -28.164,18.667 -45.068,18.667l-40.447,0l-11.459,-21.493l51.907,0c11.203,0 21.947,-4.45 29.869,-12.372c7.922,-7.922 12.372,-18.667 12.372,-29.87l0,-0.041c0,-11.203 -4.45,-21.948 -12.372,-29.869c-7.922,-7.922 -18.666,-12.373 -29.87,-12.373l-22.177,-0c-4.956,-0 -9.269,-3.389 -10.442,-8.204c-7.987,-32.796 -37.584,-57.17 -72.826,-57.17c-41.366,0 -74.95,33.584 -74.95,74.95c0,41.042 33.06,74.425 73.975,74.943l0.164,0.006l12.179,0l-11.458,21.493Z" style="fill:#fff;"/><path d="M3661.89,227.122c-0,-0 28.57,34.565 28.249,50.706c-0.321,16.141 -13.686,28.985 -29.827,28.664c-16.141,-0.321 -28.985,-13.686 -28.664,-29.827c0.321,-16.141 30.242,-49.543 30.242,-49.543Z" style="fill:#44d3ff;"/><path d="M3616.22,279.997c0,0 19.077,23.08 18.863,33.858c-0.215,10.777 -9.139,19.353 -19.916,19.139c-10.778,-0.214 -19.354,-9.138 -19.14,-19.916c0.214,-10.778 20.193,-33.081 20.193,-33.081Z" style="fill:#fff;"/><path d="M3707.08,279.997c-0,0 19.077,23.08 18.862,33.858c-0.214,10.777 -9.138,19.353 -19.916,19.139c-10.778,-0.214 -19.354,-9.138 -19.139,-19.916c0.214,-10.778 20.193,-33.081 20.193,-33.081Z" style="fill:#aeedff;"/><path d="M3628.48,259.96l-1.021,0l-0.006,-0.007l-0.13,-0c-52.65,-0.667 -95.195,-43.621 -95.195,-96.435c-0,-53.228 43.214,-96.443 96.442,-96.443c42.363,-0 78.38,27.375 91.317,65.374c0,-0 14.129,-0 14.129,-0c16.904,-0 33.115,6.715 45.068,18.668c11.952,11.952 18.667,28.164 18.667,45.067c-0,0.014 -0,0.027 -0,0.041c0,16.904 -6.715,33.115 -18.667,45.068c-11.953,11.952 -28.164,18.667 -45.068,18.667l-40.448,0l-11.458,-21.493l51.907,0c11.203,0 21.947,-4.45 29.868,-12.372c7.922,-7.922 12.373,-18.667 12.373,-29.87l-0,-0.041c-0,-11.203 -4.451,-21.948 -12.373,-29.869c-7.921,-7.922 -18.665,-12.373 -29.869,-12.373l-22.178,-0c-4.956,-0 -9.269,-3.389 -10.441,-8.204c-7.988,-32.796 -37.584,-57.17 -72.827,-57.17c-41.366,0 -74.949,33.584 -74.949,74.95c-0,41.042 33.059,74.425 73.974,74.943l0.164,0.006l12.18,0l-11.459,21.493Z" style="fill:#fff;"/><path d="M2784.86,227.122c0,-0 28.57,34.565 28.249,50.706c-0.321,16.141 -13.686,28.985 -29.827,28.664c-16.141,-0.321 -28.985,-13.686 -28.664,-29.827c0.321,-16.141 30.242,-49.543 30.242,-49.543Z" style="fill:#44d3ff;"/><path d="M2739.19,279.997c-0,0 19.077,23.08 18.862,33.858c-0.214,10.777 -9.138,19.353 -19.916,19.139c-10.778,-0.214 -19.354,-9.138 -19.139,-19.916c0.214,-10.778 20.193,-33.081 20.193,-33.081Z" style="fill:#fff;"/><path d="M2830.04,279.997c0,0 19.077,23.08 18.863,33.858c-0.215,10.777 -9.139,19.353 -19.916,19.139c-10.778,-0.214 -19.354,-9.138 -19.14,-19.916c0.214,-10.778 20.193,-33.081 20.193,-33.081Z" style="fill:#aeedff;"/><path d="M2751.45,259.96l-1.022,0l-0.006,-0.007l-0.13,-0c-52.65,-0.667 -95.195,-43.621 -95.195,-96.435c-0,-53.228 43.214,-96.443 96.443,-96.443c42.362,-0 78.379,27.375 91.317,65.374c-0,-0 14.128,-0 14.128,-0c16.904,-0 33.115,6.715 45.068,18.668c11.953,11.952 18.667,28.164 18.667,45.067c0,0.014 0,0.027 0,0.041c0,16.904 -6.714,33.115 -18.667,45.068c-11.953,11.952 -28.164,18.667 -45.068,18.667l-40.447,0l-11.459,-21.493l51.907,0c11.203,0 21.947,-4.45 29.869,-12.372c7.922,-7.922 12.372,-18.667 12.372,-29.87l0,-0.041c0,-11.203 -4.45,-21.948 -12.372,-29.869c-7.922,-7.922 -18.666,-12.373 -29.87,-12.373l-22.178,-0c-4.955,-0 -9.268,-3.389 -10.441,-8.204c-7.987,-32.796 -37.584,-57.17 -72.826,-57.17c-41.366,0 -74.95,33.584 -74.95,74.95c0,41.042 33.06,74.425 73.974,74.943l0.165,0.006l12.179,0l-11.458,21.493Z" style="fill:#fff;"/><path d="M2387.41,227.122c0,-0 28.57,34.565 28.249,50.706c-0.321,16.141 -13.686,28.985 -29.827,28.664c-16.141,-0.321 -28.985,-13.686 -28.664,-29.827c0.321,-16.141 30.242,-49.543 30.242,-49.543Z" style="fill:#44d3ff;"/><path d="M2353.99,259.96l-1.021,0l-0.006,-0.007l-0.13,-0c-52.65,-0.667 -95.195,-43.621 -95.195,-96.435c-0,-53.228 43.214,-96.443 96.443,-96.443c42.362,-0 78.379,27.375 91.316,65.374c0,-0 14.129,-0 14.129,-0c16.904,-0 33.115,6.715 45.068,18.668c11.952,11.952 18.667,28.164 18.667,45.067c0,0.014 0,0.027 0,0.041c0,16.904 -6.715,33.115 -18.667,45.068c-11.953,11.952 -28.164,18.667 -45.068,18.667l-40.448,0l-11.458,-21.493l51.907,0c11.203,0 21.947,-4.45 29.869,-12.372c7.922,-7.922 12.372,-18.667 12.372,-29.87l0,-0.041c0,-11.203 -4.45,-21.948 -12.372,-29.869c-7.922,-7.922 -18.666,-12.373 -29.87,-12.373l-22.178,-0c-4.956,-0 -9.269,-3.389 -10.441,-8.204c-7.987,-32.796 -37.584,-57.17 -72.826,-57.17c-41.366,0 -74.95,33.584 -74.95,74.95c-0,41.042 33.059,74.425 73.974,74.943l0.165,0.006l12.179,0l-11.459,21.493Z" style="fill:#fff;"/><path d="M861.56,282.104l0.006,0.007l108.7,-0c17.243,-0 33.781,-6.85 45.974,-19.043c12.193,-12.193 19.043,-28.731 19.043,-45.974c-0,-0.014 -0,-0.028 -0,-0.042c-0,-17.243 -6.85,-33.78 -19.043,-45.974c-12.193,-12.193 -28.731,-19.043 -45.974,-19.043c-0,0 -14.413,0 -14.413,0c-13.197,-38.763 -49.939,-66.688 -93.153,-66.688c-54.299,-0 -98.382,44.083 -98.382,98.382c-0,53.876 43.401,97.694 97.109,98.374l0.133,0.001Zm0.313,-21.918l-0.168,-0.007c-41.737,-0.528 -75.462,-34.583 -75.462,-76.45c0,-42.198 34.259,-76.457 76.457,-76.457c35.951,0 66.143,24.864 74.291,58.32c1.196,4.912 5.596,8.369 10.651,8.369l22.624,-0c11.429,-0 22.389,4.54 30.47,12.621c8.081,8.081 12.621,19.042 12.621,30.47l0,0.042c0,11.429 -4.54,22.389 -12.621,30.47c-8.081,8.081 -19.041,12.621 -30.469,12.622l-108.394,-0Z" style="fill:#fff;"/><path d="M955.844,183.725c-25.381,-0.321 -45.89,-21.029 -45.89,-46.489c0,-25.66 20.833,-46.493 46.493,-46.493c21.863,-0 40.221,15.122 45.176,35.467l12.032,0c7.625,0 14.937,3.029 20.328,8.421c5.391,5.391 8.42,12.703 8.42,20.328c0,0.007 0,0.014 0,0.022c0,7.624 -3.029,14.936 -8.42,20.328c-5.391,5.391 -12.703,8.42 -20.328,8.42l-57.811,-0l0,-0.004Z" style="fill:#fff;"/><path d="M519.606,282.104l0.006,0.007l107.905,-0c17.118,-0 33.534,-6.8 45.638,-18.904c12.104,-12.104 18.904,-28.521 18.904,-45.638c-0,-0.014 -0,-0.028 -0,-0.041c-0,-17.118 -6.8,-33.534 -18.904,-45.638c-12.104,-12.104 -28.52,-18.904 -45.638,-18.904c0,-0 -14.307,-0 -14.307,-0c-13.101,-38.48 -49.574,-66.201 -92.473,-66.201c-53.902,-0 -97.663,43.761 -97.663,97.663c0,53.482 43.084,96.98 96.4,97.655l0.132,0.001Zm0.31,-21.758l-0.166,-0.007c-41.433,-0.524 -74.911,-34.33 -74.911,-75.891c0,-41.889 34.009,-75.898 75.898,-75.898c35.689,-0 65.66,24.682 73.748,57.893c1.188,4.876 5.555,8.308 10.574,8.308l22.458,-0c11.346,0 22.226,4.507 30.248,12.529c8.022,8.022 12.529,18.903 12.529,30.248l-0,0.041c-0,11.345 -4.507,22.225 -12.529,30.248c-8.022,8.022 -18.902,12.529 -30.247,12.529l-107.602,-0Z" style="fill:#fff;"/><circle cx="617.315" cy="146.518" r="52.433" style="fill:#ffc900;"/><circle cx="232.769" cy="201.166" r="84.734" style="fill:#ffc900;"/><path d="M3603.06,171.946l57.84,0l-50.825,47.094l29.751,0l-99.724,87.458l39.893,-56.325l-19.529,0l42.594,-78.227Z" style="fill:#ffb600;"/><path d="M2118.89,56.838l0,277.627c0,5.933 3.706,10.749 8.27,10.749c4.564,0 8.269,-4.816 8.269,-10.749l0,-277.627c0,-5.933 -3.705,-10.749 -8.269,-10.749c-4.564,-0 -8.27,4.816 -8.27,10.749Z" style="fill:#fff;fill-opacity:0.12;"/><path d="M1132.89,56.838l0,277.627c0,5.933 3.706,10.749 8.27,10.749c4.564,0 8.269,-4.816 8.269,-10.749l0,-277.627c0,-5.933 -3.705,-10.749 -8.269,-10.749c-4.564,-0 -8.27,4.816 -8.27,10.749Z" style="fill:#fff;fill-opacity:0.12;"/><g><g><circle cx="1401.9" cy="205.657" r="100.841" style="fill:#ffc900;"/></g><g><path d="M1264.93,184.061l136.96,0c5.695,0 10.314,-4.621 10.314,-10.312c-0,-5.692 -4.619,-10.313 -10.314,-10.313l-136.96,0c-5.694,0 -10.313,4.621 -10.313,10.313c-0,5.691 4.619,10.312 10.313,10.312Z" style="fill:#f8f8f8;"/></g><g><path d="M1264.93,244.544l237.8,0c5.696,0 10.317,-4.621 10.317,-10.312c0,-5.692 -4.621,-10.313 -10.317,-10.313l-237.8,0c-5.696,0 -10.317,4.621 -10.317,10.313c-0,5.691 4.621,10.312 10.317,10.312Z" style="fill:#f8f8f8;"/></g><g><path d="M1368.94,272.704l163.273,0c5.691,0 10.312,-4.622 10.312,-10.313c0,-5.691 -4.621,-10.313 -10.312,-10.313l-163.273,-0c-5.691,-0 -10.312,4.622 -10.312,10.313c-0,5.691 4.621,10.313 10.312,10.313Z" style="fill:#f8f8f8;"/></g><g><path d="M1264.93,301.722l136.96,0c5.695,0 10.314,-4.622 10.314,-10.313c-0,-5.692 -4.619,-10.314 -10.314,-10.314l-136.96,0c-5.694,0 -10.313,4.622 -10.313,10.314c-0,5.691 4.619,10.313 10.313,10.313Z" style="fill:#f8f8f8;"/></g><g><path d="M1424.27,301.722l48.685,0c5.691,0 10.311,-4.622 10.311,-10.313c-0,-5.692 -4.62,-10.314 -10.311,-10.314l-48.685,0c-5.693,0 -10.313,4.622 -10.313,10.314c-0,5.691 4.62,10.313 10.313,10.313Z" style="fill:#f8f8f8;"/></g><g><path d="M1301.05,215.969l100.84,-0c5.69,-0 10.31,-4.621 10.31,-10.313c0,-5.691 -4.62,-10.312 -10.31,-10.312l-100.84,-0c-5.691,-0 -10.311,4.621 -10.311,10.312c0,5.692 4.62,10.313 10.311,10.313Z" style="fill:#f8f8f8;"/></g><g><path d="M1432.77,215.969l36.219,-0c5.692,-0 10.312,-4.621 10.312,-10.313c-0,-5.691 -4.62,-10.312 -10.312,-10.312l-36.219,-0c-5.692,-0 -10.311,4.621 -10.311,10.312c-0,5.692 4.619,10.313 10.311,10.313Z" style="fill:#f8f8f8;"/></g></g><g><g><circle cx="1858.34" cy="204.05" r="101.582" style="fill:#ffc900;"/></g><g><path d="M1720.36,182.296l137.968,-0c5.736,-0 10.389,-4.655 10.389,-10.389c-0,-5.733 -4.653,-10.388 -10.389,-10.388l-137.968,0c-5.736,0 -10.389,4.655 -10.389,10.388c0,5.734 4.653,10.389 10.389,10.389Z" style="fill:#777;"/></g><g><path d="M1720.36,243.223l239.549,0c5.737,0 10.392,-4.655 10.392,-10.388c0,-5.733 -4.655,-10.389 -10.392,-10.389l-239.549,0c-5.738,0 -10.393,4.656 -10.393,10.389c0,5.733 4.655,10.388 10.393,10.388Z" style="fill:#777;"/></g><g><path d="M1825.14,271.591l164.473,-0c5.733,-0 10.388,-4.656 10.388,-10.39c0,-5.733 -4.655,-10.389 -10.388,-10.389l-164.473,0c-5.733,0 -10.388,4.656 -10.388,10.389c-0,5.734 4.655,10.39 10.388,10.39Z" style="fill:#777;"/></g><g><path d="M1720.36,300.822l137.968,-0c5.736,-0 10.389,-4.656 10.389,-10.39c-0,-5.733 -4.653,-10.389 -10.389,-10.389l-137.968,0c-5.736,0 -10.389,4.656 -10.389,10.389c0,5.734 4.653,10.39 10.389,10.39Z" style="fill:#777;"/></g><g><path d="M1880.87,300.822l49.043,-0c5.732,-0 10.386,-4.656 10.386,-10.39c0,-5.733 -4.654,-10.389 -10.386,-10.389l-49.043,0c-5.735,0 -10.39,4.656 -10.39,10.389c0,5.734 4.655,10.39 10.39,10.39Z" style="fill:#777;"/></g><g><path d="M1756.75,214.438l101.581,-0c5.732,-0 10.386,-4.655 10.386,-10.388c0,-5.734 -4.654,-10.389 -10.386,-10.389l-101.581,0c-5.733,0 -10.387,4.655 -10.387,10.389c0,5.733 4.654,10.388 10.387,10.388Z" style="fill:#777;"/></g><g><path d="M1889.43,214.438l36.484,-0c5.734,-0 10.388,-4.655 10.388,-10.388c-0,-5.734 -4.654,-10.389 -10.388,-10.389l-36.484,0c-5.734,0 -10.388,4.655 -10.388,10.389c-0,5.733 4.654,10.388 10.388,10.388Z" style="fill:#777;"/></g></g></g></svg>