<?xml version="1.0" encoding="UTF-8" standalone="no"?><!DOCTYPE svg PUBLIC "-//W3C//DTD SVG 1.1//EN" "http://www.w3.org/Graphics/SVG/1.1/DTD/svg11.dtd"><svg width="100%" height="100%" viewBox="0 0 1000 100" version="1.1" xmlns="http://www.w3.org/2000/svg" xmlns:xlink="http://www.w3.org/1999/xlink" xml:space="preserve" xmlns:serif="http://www.serif.com/" style="fill-rule:evenodd;clip-rule:evenodd;stroke-linejoin:round;stroke-miterlimit:2;"><path d="M1000,20.131c0,-10.723 -8.693,-19.415 -19.416,-19.415c-126.696,-0 -834.472,-0 -961.168,-0c-10.723,-0 -19.416,8.692 -19.416,19.415c0,17.289 0,42.449 0,59.738c-0,10.723 8.693,19.415 19.416,19.415c126.696,0 834.472,0 961.168,0c10.723,0 19.416,-8.692 19.416,-19.415c0,-17.289 0,-42.449 0,-59.738Z" style="fill:#0f0f0f;"/><path d="M829.417,51.638c0,-0 7.307,8.84 7.225,12.968c-0.082,4.128 -3.5,7.413 -7.628,7.331c-4.128,-0.082 -7.413,-3.5 -7.331,-7.629c0.082,-4.128 7.734,-12.67 7.734,-12.67Z" style="fill:#44d3ff;"/><path d="M829.315,73.715c-0,0 3.6,4.355 3.559,6.389c-0.04,2.034 -1.724,3.652 -3.758,3.612c-2.034,-0.041 -3.652,-1.725 -3.612,-3.758c0.041,-2.034 3.811,-6.243 3.811,-6.243Z" style="fill:#44d3ff;"/><path d="M817.737,65.161c0,-0 4.879,5.902 4.824,8.659c-0.055,2.756 -2.337,4.95 -5.093,4.895c-2.757,-0.055 -4.95,-2.337 -4.895,-5.094c0.054,-2.756 5.164,-8.46 5.164,-8.46Z" style="fill:#fff;"/><path d="M840.973,65.161c0,-0 4.879,5.902 4.824,8.659c-0.054,2.756 -2.337,4.95 -5.093,4.895c-2.757,-0.055 -4.95,-2.337 -4.895,-5.094c0.055,-2.756 5.164,-8.46 5.164,-8.46Z" style="fill:#aeedff;"/><path d="M820.871,60.036l-0.261,0l-0.001,-0.002l-0.034,0c-13.465,-0.17 -24.346,-11.156 -24.346,-24.663c-0,-13.614 11.052,-24.666 24.665,-24.666c10.835,-0 20.046,7.001 23.355,16.72c0,-0 3.614,-0 3.614,-0c4.323,-0 8.469,1.717 11.526,4.774c3.057,3.057 4.774,7.203 4.774,11.526c0,0.004 0,0.007 0,0.011c0,4.323 -1.717,8.469 -4.774,11.526c-3.057,3.057 -7.203,4.774 -11.526,4.774l-10.345,0l-2.931,-5.497l13.276,0c2.865,0 5.613,-1.138 7.639,-3.164c2.026,-2.026 3.164,-4.774 3.164,-7.639l0,-0.011c0,-2.865 -1.138,-5.613 -3.164,-7.639c-2.026,-2.026 -4.774,-3.164 -7.64,-3.164l-5.672,-0c-1.267,-0 -2.37,-0.867 -2.67,-2.099c-2.043,-8.387 -9.612,-14.621 -18.626,-14.621c-10.579,-0 -19.168,8.589 -19.168,19.169c-0,10.496 8.455,19.034 18.919,19.167l0.042,0.001l3.115,0l-2.931,5.497Z" style="fill:#fff;"/><path d="M936.802,51.638c-0,-0 7.306,8.84 7.224,12.968c-0.082,4.128 -3.5,7.413 -7.628,7.331c-4.128,-0.082 -7.413,-3.5 -7.331,-7.629c0.082,-4.128 7.735,-12.67 7.735,-12.67Z" style="fill:#44d3ff;"/><path d="M925.121,65.161c0,-0 4.879,5.902 4.824,8.659c-0.054,2.756 -2.337,4.95 -5.093,4.895c-2.757,-0.055 -4.95,-2.337 -4.895,-5.094c0.055,-2.756 5.164,-8.46 5.164,-8.46Z" style="fill:#fff;"/><path d="M948.358,65.161c-0,-0 4.878,5.902 4.824,8.659c-0.055,2.756 -2.338,4.95 -5.094,4.895c-2.756,-0.055 -4.95,-2.337 -4.895,-5.094c0.055,-2.756 5.165,-8.46 5.165,-8.46Z" style="fill:#aeedff;"/><path d="M928.256,60.036l-0.262,0l-0.001,-0.002l-0.033,0c-13.466,-0.17 -24.347,-11.156 -24.347,-24.663c-0,-13.614 11.052,-24.666 24.666,-24.666c10.834,-0 20.046,7.001 23.354,16.72c0,-0 3.614,-0 3.614,-0c4.323,-0 8.469,1.717 11.526,4.774c3.057,3.057 4.774,7.203 4.774,11.526c0,0.004 0,0.007 0,0.011c0,4.323 -1.717,8.469 -4.774,11.526c-3.057,3.057 -7.203,4.774 -11.526,4.774l-10.345,0l-2.93,-5.497l13.275,0c2.865,0 5.613,-1.138 7.639,-3.164c2.026,-2.026 3.164,-4.774 3.164,-7.639l0,-0.011c0,-2.865 -1.138,-5.613 -3.164,-7.639c-2.026,-2.026 -4.774,-3.164 -7.639,-3.164l-5.672,-0c-1.268,-0 -2.371,-0.867 -2.671,-2.099c-2.042,-8.387 -9.612,-14.621 -18.625,-14.621c-10.58,-0 -19.169,8.589 -19.169,19.169c-0,10.496 8.455,19.034 18.919,19.167l0.042,0.001l3.115,0l-2.93,5.497Z" style="fill:#fff;"/><path d="M719.913,51.638c0,-0 7.307,8.84 7.225,12.968c-0.082,4.128 -3.5,7.413 -7.628,7.331c-4.129,-0.082 -7.413,-3.5 -7.331,-7.629c0.082,-4.128 7.734,-12.67 7.734,-12.67Z" style="fill:#44d3ff;"/><path d="M708.233,65.161c-0,-0 4.879,5.902 4.824,8.659c-0.055,2.756 -2.337,4.95 -5.094,4.895c-2.756,-0.055 -4.949,-2.337 -4.895,-5.094c0.055,-2.756 5.165,-8.46 5.165,-8.46Z" style="fill:#fff;"/><path d="M731.469,65.161c0,-0 4.879,5.902 4.824,8.659c-0.055,2.756 -2.337,4.95 -5.093,4.895c-2.757,-0.055 -4.95,-2.337 -4.895,-5.094c0.054,-2.756 5.164,-8.46 5.164,-8.46Z" style="fill:#aeedff;"/><path d="M711.367,60.036l-0.261,0l-0.002,-0.002l-0.033,0c-13.465,-0.17 -24.346,-11.156 -24.346,-24.663c-0,-13.614 11.052,-24.666 24.665,-24.666c10.835,-0 20.046,7.001 23.355,16.72c-0,-0 3.613,-0 3.613,-0c4.324,-0 8.47,1.717 11.527,4.774c3.057,3.057 4.774,7.203 4.774,11.526c-0,0.004 -0,0.007 -0,0.011c-0,4.323 -1.717,8.469 -4.774,11.526c-3.057,3.057 -7.203,4.774 -11.527,4.774l-10.344,0l-2.931,-5.497l13.276,0c2.865,0 5.613,-1.138 7.639,-3.164c2.026,-2.026 3.164,-4.774 3.164,-7.639l-0,-0.011c-0,-2.865 -1.138,-5.613 -3.164,-7.639c-2.026,-2.026 -4.774,-3.164 -7.64,-3.164l-5.672,-0c-1.267,-0 -2.37,-0.867 -2.67,-2.099c-2.043,-8.387 -9.612,-14.621 -18.626,-14.621c-10.579,-0 -19.168,8.589 -19.168,19.169c-0,10.496 8.455,19.034 18.919,19.167l0.042,0.001l3.115,0l-2.931,5.497Z" style="fill:#fff;"/><path d="M599.081,51.638c0,-0 7.307,8.84 7.225,12.968c-0.082,4.128 -3.5,7.413 -7.629,7.331c-4.128,-0.082 -7.413,-3.5 -7.33,-7.629c0.082,-4.128 7.734,-12.67 7.734,-12.67Z" style="fill:#44d3ff;"/><path d="M590.535,60.036l-0.261,0l-0.002,-0.002l-0.033,0c-13.465,-0.17 -24.346,-11.156 -24.346,-24.663c-0,-13.614 11.052,-24.666 24.665,-24.666c10.835,-0 20.046,7.001 23.355,16.72c-0,-0 3.613,-0 3.613,-0c4.324,-0 8.47,1.717 11.527,4.774c3.057,3.057 4.774,7.203 4.774,11.526c-0,0.004 -0,0.007 -0,0.011c-0,4.323 -1.717,8.469 -4.774,11.526c-3.057,3.057 -7.203,4.774 -11.527,4.774l-10.344,0l-2.931,-5.497l13.276,0c2.865,0 5.613,-1.138 7.639,-3.164c2.026,-2.026 3.164,-4.774 3.164,-7.639l-0,-0.011c-0,-2.865 -1.138,-5.613 -3.164,-7.639c-2.026,-2.026 -4.774,-3.164 -7.64,-3.164l-5.672,-0c-1.267,-0 -2.37,-0.867 -2.67,-2.099c-2.043,-8.387 -9.612,-14.621 -18.626,-14.621c-10.579,-0 -19.168,8.589 -19.168,19.169c-0,10.496 8.455,19.034 18.919,19.167l0.042,0.001l3.115,0l-2.931,5.497Z" style="fill:#fff;"/><path d="M234.336,73.142l0.002,0.002l30.498,-0c4.838,-0 9.478,-1.922 12.899,-5.343c3.421,-3.421 5.343,-8.061 5.343,-12.899c0,-0.004 0,-0.008 0,-0.012c0,-4.838 -1.922,-9.478 -5.343,-12.899c-3.421,-3.421 -8.061,-5.343 -12.899,-5.343c0,-0 -4.044,-0 -4.044,-0c-3.703,-10.876 -14.011,-18.711 -26.136,-18.711c-15.235,-0 -27.604,12.369 -27.604,27.603c0,15.117 12.177,27.411 27.247,27.602l0.037,-0Zm0.088,-6.15l-0.047,-0.002c-11.711,-0.148 -21.173,-9.703 -21.173,-21.45c-0,-11.839 9.612,-21.451 21.452,-21.451c10.087,-0 18.558,6.976 20.844,16.363c0.335,1.378 1.57,2.348 2.988,2.348l6.348,-0c3.207,-0 6.282,1.274 8.549,3.541c2.268,2.267 3.541,5.342 3.541,8.549l0,0.012c0,3.206 -1.273,6.282 -3.541,8.549c-2.267,2.267 -5.342,3.541 -8.549,3.541l-30.412,0Z" style="fill:#fff;"/><path d="M260.79,45.539c-7.122,-0.09 -12.876,-5.9 -12.876,-13.043c0,-7.2 5.845,-13.045 13.045,-13.045c6.134,-0 11.285,4.243 12.675,9.951l3.376,0c2.139,0 4.191,0.85 5.704,2.363c1.512,1.512 2.362,3.564 2.362,5.703c-0,0.002 -0,0.004 -0,0.006c0,2.14 -0.85,4.191 -2.362,5.704c-1.513,1.513 -3.565,2.362 -5.704,2.362l-16.22,0l-0,-0.001Z" style="fill:#fff;"/><path d="M122.738,73.142l0.001,0.002l30.296,-0c4.806,-0 9.415,-1.909 12.813,-5.308c3.398,-3.398 5.307,-8.007 5.307,-12.813c0,-0.004 0,-0.007 0,-0.011c0,-4.806 -1.909,-9.415 -5.307,-12.814c-3.398,-3.398 -8.007,-5.307 -12.813,-5.307c-0,-0 -4.017,-0 -4.017,-0c-3.678,-10.804 -13.918,-18.587 -25.963,-18.587c-15.133,0 -27.419,12.287 -27.419,27.42c-0,15.016 12.096,27.228 27.065,27.418l0.037,-0Zm0.087,-6.109l-0.047,-0.002c-11.632,-0.147 -21.032,-9.638 -21.032,-21.307c0,-11.761 9.549,-21.309 21.309,-21.309c10.02,0 18.435,6.93 20.706,16.254c0.333,1.369 1.559,2.333 2.968,2.333l6.306,-0c3.185,-0 6.24,1.265 8.492,3.517c2.252,2.253 3.518,5.307 3.518,8.493l-0,0.011c-0,3.185 -1.266,6.24 -3.518,8.493c-2.252,2.252 -5.307,3.517 -8.492,3.517l-30.21,0Z" style="fill:#fff;"/><circle cx="150.17" cy="35.075" r="14.721" style="fill:#ffc900;"/><circle cx="44.442" cy="45.54" r="21.671" style="fill:#ffc900;"/><path d="M921.754,37.526l14.792,0l-12.999,12.045l7.61,-0l-25.505,22.367l10.202,-14.405l-4.994,0l10.894,-20.007Z" style="fill:#ffb600;"/><path d="M314.442,17.313l-0,54.625c-0,1.168 0.947,2.115 2.115,2.115c1.167,0 2.115,-0.947 2.115,-2.115l-0,-54.625c-0,-1.168 -0.948,-2.115 -2.115,-2.115c-1.168,-0 -2.115,0.947 -2.115,2.115Z" style="fill:#fff;fill-opacity:0.12;"/><path d="M531.942,17.313l-0,54.625c-0,1.168 0.947,2.115 2.115,2.115c1.167,0 2.115,-0.947 2.115,-2.115l-0,-54.625c-0,-1.168 -0.948,-2.115 -2.115,-2.115c-1.168,-0 -2.115,0.947 -2.115,2.115Z" style="fill:#fff;fill-opacity:0.12;"/><g><circle cx="478.232" cy="45.133" r="25.79" style="fill:#ffc900;"/></g><g><path d="M443.202,39.61l35.028,-0c1.457,-0 2.638,-1.182 2.638,-2.638c0,-1.455 -1.181,-2.637 -2.638,-2.637l-35.028,-0c-1.456,-0 -2.638,1.182 -2.638,2.637c0,1.456 1.182,2.638 2.638,2.638Z" style="fill:#f8f8f8;"/></g><g><path d="M443.202,55.078l60.818,0c1.457,0 2.639,-1.181 2.639,-2.637c-0,-1.456 -1.182,-2.637 -2.639,-2.637l-60.818,-0c-1.457,-0 -2.639,1.181 -2.639,2.637c0,1.456 1.182,2.637 2.639,2.637Z" style="fill:#f8f8f8;"/></g><g><path d="M469.804,62.281l41.758,-0c1.455,-0 2.637,-1.183 2.637,-2.638c0,-1.456 -1.182,-2.638 -2.637,-2.638l-41.758,0c-1.456,0 -2.637,1.182 -2.637,2.638c-0,1.455 1.181,2.638 2.637,2.638Z" style="fill:#f8f8f8;"/></g><g><path d="M443.202,69.702l35.028,-0c1.457,-0 2.638,-1.182 2.638,-2.638c0,-1.455 -1.181,-2.637 -2.638,-2.637l-35.028,-0c-1.456,-0 -2.638,1.182 -2.638,2.637c0,1.456 1.182,2.638 2.638,2.638Z" style="fill:#f8f8f8;"/></g><g><path d="M483.952,69.702l12.452,-0c1.455,-0 2.637,-1.182 2.637,-2.638c-0,-1.455 -1.182,-2.637 -2.637,-2.637l-12.452,-0c-1.456,-0 -2.637,1.182 -2.637,2.637c-0,1.456 1.181,2.638 2.637,2.638Z" style="fill:#f8f8f8;"/></g><g><path d="M452.44,47.77l25.79,0c1.456,0 2.637,-1.182 2.637,-2.637c0,-1.456 -1.181,-2.638 -2.637,-2.638l-25.79,0c-1.455,0 -2.637,1.182 -2.637,2.638c0,1.455 1.182,2.637 2.637,2.637Z" style="fill:#f8f8f8;"/></g><g><path d="M486.128,47.77l9.263,0c1.455,0 2.637,-1.182 2.637,-2.637c-0,-1.456 -1.182,-2.638 -2.637,-2.638l-9.263,0c-1.456,0 -2.638,1.182 -2.638,2.638c0,1.455 1.182,2.637 2.638,2.637Z" style="fill:#f8f8f8;"/></g><g><circle cx="389.599" cy="44.064" r="27.874" style="fill:#ffc900;"/></g><g><path d="M351.739,38.095l37.858,-0c1.574,-0 2.851,-1.277 2.851,-2.851c-0,-1.573 -1.277,-2.85 -2.851,-2.85l-37.858,-0c-1.574,-0 -2.851,1.277 -2.851,2.85c0,1.574 1.277,2.851 2.851,2.851Z" style="fill:#d59801;"/></g><g><path d="M351.739,54.813l65.732,0c1.574,0 2.851,-1.277 2.851,-2.85c0,-1.573 -1.277,-2.851 -2.851,-2.851l-65.732,0c-1.575,0 -2.852,1.278 -2.852,2.851c-0,1.573 1.277,2.85 2.852,2.85Z" style="fill:#d59801;"/></g><g><path d="M380.49,62.597l45.131,0c1.573,0 2.851,-1.277 2.851,-2.85c-0,-1.574 -1.278,-2.851 -2.851,-2.851l-45.131,-0c-1.573,-0 -2.851,1.277 -2.851,2.851c0,1.573 1.278,2.85 2.851,2.85Z" style="fill:#d59801;"/></g><g><path d="M351.739,70.618l37.858,0c1.574,0 2.851,-1.277 2.851,-2.851c-0,-1.573 -1.277,-2.85 -2.851,-2.85l-37.858,-0c-1.574,-0 -2.851,1.277 -2.851,2.85c0,1.574 1.277,2.851 2.851,2.851Z" style="fill:#d59801;"/></g><g><path d="M395.781,70.618l13.458,0c1.573,0 2.85,-1.277 2.85,-2.851c-0,-1.573 -1.277,-2.85 -2.85,-2.85l-13.458,-0c-1.573,-0 -2.851,1.277 -2.851,2.85c0,1.574 1.278,2.851 2.851,2.851Z" style="fill:#d59801;"/></g><g><path d="M361.723,46.915l27.874,-0c1.573,-0 2.85,-1.278 2.85,-2.851c0,-1.573 -1.277,-2.85 -2.85,-2.85l-27.874,-0c-1.573,-0 -2.85,1.277 -2.85,2.85c0,1.573 1.277,2.851 2.85,2.851Z" style="fill:#d59801;"/></g><g><path d="M398.132,46.915l10.012,-0c1.573,-0 2.85,-1.278 2.85,-2.851c0,-1.573 -1.277,-2.85 -2.85,-2.85l-10.012,-0c-1.573,-0 -2.85,1.277 -2.85,2.85c-0,1.573 1.277,2.851 2.85,2.851Z" style="fill:#d59801;"/></g></svg>